<?xml version="1.0" encoding="utf-8"?>
<svg width="800px" height="800px" viewBox="0 0 400 400" fill="none" xmlns="http://www.w3.org/2000/svg">
<rect width="400" height="400" fill="#000000"/>
<g transform="translate(200, 200) scale(1.4) translate(-200, -200)">
<path d="M93.5508 141.483C124.869 126.981 161.616 126.301 191.462 145.61" stroke="#00ff88" stroke-opacity="0.9" stroke-width="16" stroke-linecap="round" stroke-linejoin="round"/>
<path d="M200.759 141.479C227.619 119.606 259.81 106.349 293.197 114.351" stroke="#00ff88" stroke-opacity="0.9" stroke-width="16" stroke-linecap="round" stroke-linejoin="round"/>
<path d="M295.933 115.531C295.337 160.416 291.011 205.171 291.011 250.003" stroke="#00ff88" stroke-opacity="0.9" stroke-width="16" stroke-linecap="round" stroke-linejoin="round"/>
<path d="M90.2695 148.557C103.126 185 105.153 224.545 113.79 261.799" stroke="#00ff88" stroke-opacity="0.9" stroke-width="16" stroke-linecap="round" stroke-linejoin="round"/>
<path d="M192.553 146.79C195.18 186.791 189.82 226.715 189.82 266.517" stroke="#00ff88" stroke-opacity="0.9" stroke-width="16" stroke-linecap="round" stroke-linejoin="round"/>
<path d="M119.806 266.516C146.259 254.871 171.912 258.644 192.552 277.721" stroke="#00ff88" stroke-opacity="0.9" stroke-width="16" stroke-linecap="round" stroke-linejoin="round"/>
<path d="M199.663 271.824C225.199 256.622 263.229 239.373 291.011 256.488" stroke="#00ff88" stroke-opacity="0.9" stroke-width="16" stroke-linecap="round" stroke-linejoin="round"/>
<path d="M309.062 132.634C311.538 178.736 303.011 225.444 306.872 271.233" stroke="#00ff88" stroke-opacity="0.9" stroke-width="16" stroke-linecap="round" stroke-linejoin="round"/>
<path d="M204.587 285.39C228.22 255.857 271.867 242.926 299.762 273.004" stroke="#00ff88" stroke-opacity="0.9" stroke-width="16" stroke-linecap="round" stroke-linejoin="round"/>
<path d="M124.182 278.311C148.34 268.73 182.21 266.565 201.854 287.749" stroke="#00ff88" stroke-opacity="0.9" stroke-width="16" stroke-linecap="round" stroke-linejoin="round"/>
</g>
</svg>
